<svg xmlns="http://www.w3.org/2000/svg" xmlns:xlink="http://www.w3.org/1999/xlink" version="1.1" x="0px" y="0px" width="100px" height="100px" viewBox="0 0 100 100" enable-background="new 0 0 100 100" xml:space="preserve" xmlns:xml="http://www.w3.org/XML/1998/namespace">
<g transform='scale(4.18,4.18)'>
	<radialGradient id="grad1" cx="50%" cy="50%" r="50%" >
    	<stop offset="0" style="stop-color:#9DD93E" />
     	<stop offset="1" style="stop-color:#8BC037" />
    </radialGradient>
    <clipPath id="circle-shape">
	  <circle cx="12" cy="12" r="12" /> 
	</clipPath>
    <circle cx="12" cy="12" r="12" fill="url(#grad1)" /> 
	
	<rect x="10.9" y="4" width="2.5" height="2.5" fill="#fff" />
	<rect x="10.9" y="3.9" width="2.5" height="2.5" fill="#fff" transform="rotate(-90 12 12)" />
	<rect x="10.9" y="3.9" width="2.5" height="2.5" fill="#fff" transform="rotate(-45 12 12)" />
	<rect x="10.9" y="3.8" width="2.5" height="2.5" fill="#fff" transform="rotate(45 12 12)" />

	<rect x="10.9" y="17.5" width="2.5" height="2.5" fill="#fff" />
	<rect x="10.9" y="17.5" width="2.5" height="2.5" fill="#fff" transform="rotate(-90 12 12)" />
	<rect x="10.9" y="17.5" width="2.5" height="2.5" fill="#fff" transform="rotate(-45 12 12)" />
	<rect x="10.9" y="17.5" width="2.5" height="2.5" fill="#fff" transform="rotate(45 12 12)" />
    
    <ellipse opacity="0.3" cx="12" cy="0" rx="17" ry="15.5" fill="#FFF"  clip-path="url(#circle-shape)" />
</g>
</svg>