<svg xmlns="http://www.w3.org/2000/svg" xmlns:xlink="http://www.w3.org/1999/xlink" version="1.1" x="0px" y="0px" width="100px" height="100px" viewBox="0 0 100 100" enable-background="new 0 0 100 100" xml:space="preserve" xmlns:xml="http://www.w3.org/XML/1998/namespace">
<g transform='scale(4.18,4.18)'>
    	<radialGradient id="grad1" cx="50%" cy="50%" r="50%" >
        	<stop offset="0" style="stop-color:#F3492E" />
         	<stop offset="1" style="stop-color:#D63428" />
        </radialGradient>
        <clipPath id="circle-shape">
    		<circle cx="12" cy="12" r="12" /> 
    	</clipPath>
        <circle cx="12" cy="12" r="12" fill="url(#grad1)" /> 
        
        <path fill="#7f7f7f" d="M14.71,11.93 c1.55,1.08,1.88,2.01,1.88,2.01 c-2.74,5.91 -8.74,5.70 -10.62,5.02 c-1.31 -0.47 -2.9 -1.81 -2.9 -4.15 s1.85 -4.28,1.85 -4.28 s-0.04,2.01,0.73,3.46 c0,0 -0.31,0.96,0.12,1.73 c0.41,0.74,1.37,1.21,2.86,1.1 c1.25 -0.09,2.59 -0.47,3.98 -1.53 C14.23,14.04,14.71,11.93,14.71,11.93z" transform="translate(-0.0,-0.25)" />
        <path fill="#7f7f7f" d="M14.71,11.93 c1.55,1.08,1.88,2.01,1.88,2.01 c-2.74,5.91 -8.74,5.70 -10.62,5.02 c-1.31 -0.47 -2.9 -1.81 -2.9 -4.15 s1.85 -4.28,1.85 -4.28 s-0.04,2.01,0.73,3.46 c0,0 -0.31,0.96,0.12,1.73 c0.41,0.74,1.37,1.21,2.86,1.1 c1.25 -0.09,2.59 -0.47,3.98 -1.53 C14.23,14.04,14.71,11.93,14.71,11.93z" transform="rotate(118 12.15 12.03)"/>
        <path fill="#7f7f7f" d="M14.71,11.93 c1.55,1.08,1.88,2.01,1.88,2.01 c-2.74,5.91 -8.74,5.70 -10.62,5.02 c-1.31 -0.47 -2.9 -1.81 -2.9 -4.15 s1.85 -4.28,1.85 -4.28 s-0.04,2.01,0.73,3.46 c0,0 -0.31,0.96,0.12,1.73 c0.41,0.74,1.37,1.21,2.86,1.1 c1.25 -0.09,2.59 -0.47,3.98 -1.53 C14.23,14.04,14.71,11.93,14.71,11.93z" transform="rotate(240 12 12.03)"/>

        <path fill="#fff" d="M14.71,11.93 c1.55,1.08,1.88,2.01,1.88,2.01 c-2.74,5.91 -8.74,5.70 -10.62,5.02 c-1.31 -0.47 -2.9 -1.81 -2.9 -4.15 s1.85 -4.28,1.85 -4.28 s-0.04,2.01,0.73,3.46 c0,0 -0.31,0.96,0.12,1.73 c0.41,0.74,1.37,1.21,2.86,1.1 c1.25 -0.09,2.59 -0.47,3.98 -1.53 C14.23,14.04,14.71,11.93,14.71,11.93z" />
    	<path fill="#fff" d="M14.71,11.93 c1.55,1.08,1.88,2.01,1.88,2.01 c-2.74,5.91 -8.74,5.70 -10.62,5.02 c-1.31 -0.47 -2.9 -1.81 -2.9 -4.15 s1.85 -4.28,1.85 -4.28 s-0.04,2.01,0.73,3.46 c0,0 -0.31,0.96,0.12,1.73 c0.41,0.74,1.37,1.21,2.86,1.1 c1.25 -0.09,2.59 -0.47,3.98 -1.53 C14.23,14.04,14.71,11.93,14.71,11.93z" transform="rotate(118 12.15 12.25)"/>
        <path fill="#fff" d="M14.71,11.93 c1.55,1.08,1.88,2.01,1.88,2.01 c-2.74,5.91 -8.74,5.70 -10.62,5.02 c-1.31 -0.47 -2.9 -1.81 -2.9 -4.15 s1.85 -4.28,1.85 -4.28 s-0.04,2.01,0.73,3.46 c0,0 -0.31,0.96,0.12,1.73 c0.41,0.74,1.37,1.21,2.86,1.1 c1.25 -0.09,2.59 -0.47,3.98 -1.53 C14.23,14.04,14.71,11.93,14.71,11.93z" transform="rotate(240 12 12.25)"/>
        
        <ellipse opacity="0.3" cx="12" cy="0" rx="17" ry="15.5" fill="#FFF"  clip-path="url(#circle-shape)" />
    </g>
</svg>