<svg xmlns="http://www.w3.org/2000/svg" xmlns:xlink="http://www.w3.org/1999/xlink" version="1.1" x="0px" y="0px" width="100px" height="100px" viewBox="0 0 100 100" enable-background="new 0 0 100 100" xml:space="preserve" xmlns:xml="http://www.w3.org/XML/1998/namespace">
<g transform='scale(4.18,4.18)'>
    	<radialGradient id="grad1" cx="50%" cy="50%" r="50%" >
        	<stop offset="0" style="stop-color:#00AEE9" />
         	<stop offset="1" style="stop-color:#0092C4" />
        </radialGradient>
        <clipPath id="circle-shape">
    	  <circle cx="12" cy="12" r="12" /> 
    	</clipPath>
        <circle cx="12" cy="12" r="12" fill="url(#grad1)" /> 
        <circle cx="12" cy="12" r="9" fill="#7f7f7f" />
        <ellipse cx="12" cy="12.3" rx="8.99" ry="8.78" fill="#F2F2F2" />

    	<rect x="10.55" y="15.25" fill="#7f7f7f" width="2.35" height="2.3"/>
    	<rect x="10.55" y="14.95" fill="url(#grad1)" width="2.35" height="2.3"/>
    	<path fill="#31383A" d="M15.36,8.45 c-0.50 -1.82 -3.1 -1.53 -3.63 -1.59 s-3.57,0.63 -3.58,3.2 h2.2 c0,0 -0.02 -1.89,1.46 -1.94 s1.46,1.21,1.37,1.57 s-0.5,2.44 -1.42,2.87 c-0.92,0.43 -0.98,0.55 -0.97,1.49 h2.02 c0,0-0.17 -1.15,0.68 -1.76 C14.17,11.78,16.02,10.84,15.36,8.45z"/>
    	<path fill="url(#grad1)" d="M8.19,9.42 h2.17 c0,0 -0.10 -1.87,1.54 -1.95 c0.75 -0.03,1.18,0.48,1.27,1.35 c0.08,0.70 -0.05,1.47 -0.56,1.79 c-1.33,0.86 -1.78,1.67 -1.82,2.92 h1.99 c0,0 -0.15 -1.34,0.98 -2.01 c0.97 -0.58,1.77 -1.32,1.71 -2.52 c-0.10 -1.98 -2.34 -2.95 -4.21 -2.62 C10.08,6.58,8.6,7.21,8.19,9.42z" />
        <ellipse opacity="0.3" cx="12" cy="0" rx="17" ry="15.5" fill="#FFF"  clip-path="url(#circle-shape)" />
    </g>
</svg>